<mxfile host="Electron" modified="2023-11-01T05:25:07.479Z" agent="Mozilla/5.0 (Windows NT 10.0; Win64; x64) AppleWebKit/537.36 (KHTML, like Gecko) draw.io/22.0.3 Chrome/114.0.5735.289 Electron/25.8.4 Safari/537.36" etag="x8JX0UFQogiZxNNBUtR6" version="22.0.3" type="device">
  <diagram name="PÃ¡gina-1" id="Lh74PtTvBefEb9Mxmyac">
    <mxGraphModel dx="1615" dy="982" grid="1" gridSize="10" guides="1" tooltips="1" connect="1" arrows="1" fold="1" page="1" pageScale="1" pageWidth="827" pageHeight="1169" math="0" shadow="0">
      <root>
        <mxCell id="0" />
        <mxCell id="1" parent="0" />
        <mxCell id="AEeKhbwLAg1B9olZ4guV-9" style="edgeStyle=orthogonalEdgeStyle;rounded=0;orthogonalLoop=1;jettySize=auto;html=1;exitX=0.5;exitY=1;exitDx=0;exitDy=0;entryX=1;entryY=0.5;entryDx=0;entryDy=0;endArrow=none;endFill=0;labelBackgroundColor=none;strokeColor=#E07A5F;fontColor=default;" parent="1" source="Ph2dyEkU18BS4YI-uCKn-2" target="AEeKhbwLAg1B9olZ4guV-7" edge="1">
          <mxGeometry relative="1" as="geometry" />
        </mxCell>
        <mxCell id="AEeKhbwLAg1B9olZ4guV-10" style="edgeStyle=orthogonalEdgeStyle;rounded=0;orthogonalLoop=1;jettySize=auto;html=1;exitX=1;exitY=0.5;exitDx=0;exitDy=0;endArrow=none;endFill=0;labelBackgroundColor=none;strokeColor=#E07A5F;fontColor=default;" parent="1" source="Ph2dyEkU18BS4YI-uCKn-2" target="AEeKhbwLAg1B9olZ4guV-8" edge="1">
          <mxGeometry relative="1" as="geometry" />
        </mxCell>
        <mxCell id="Ph2dyEkU18BS4YI-uCKn-2" value="Usuario" style="rounded=1;whiteSpace=wrap;html=1;labelBackgroundColor=none;fillColor=#F2CC8F;strokeColor=#E07A5F;fontColor=#393C56;" parent="1" vertex="1">
          <mxGeometry x="540" y="280" width="120" height="60" as="geometry" />
        </mxCell>
        <mxCell id="AEeKhbwLAg1B9olZ4guV-11" style="edgeStyle=orthogonalEdgeStyle;rounded=0;orthogonalLoop=1;jettySize=auto;html=1;exitX=1;exitY=0.5;exitDx=0;exitDy=0;entryX=0.5;entryY=1;entryDx=0;entryDy=0;endArrow=none;endFill=0;labelBackgroundColor=none;strokeColor=#E07A5F;fontColor=default;" parent="1" source="Ph2dyEkU18BS4YI-uCKn-3" target="AEeKhbwLAg1B9olZ4guV-8" edge="1">
          <mxGeometry relative="1" as="geometry" />
        </mxCell>
        <mxCell id="AEeKhbwLAg1B9olZ4guV-12" style="edgeStyle=orthogonalEdgeStyle;rounded=0;orthogonalLoop=1;jettySize=auto;html=1;exitX=0;exitY=0.5;exitDx=0;exitDy=0;endArrow=none;endFill=0;labelBackgroundColor=none;strokeColor=#E07A5F;fontColor=default;entryX=0.75;entryY=1;entryDx=0;entryDy=0;" parent="1" source="Ph2dyEkU18BS4YI-uCKn-3" target="AEeKhbwLAg1B9olZ4guV-7" edge="1">
          <mxGeometry relative="1" as="geometry">
            <mxPoint x="510" y="510" as="targetPoint" />
          </mxGeometry>
        </mxCell>
        <mxCell id="Ph2dyEkU18BS4YI-uCKn-3" value="Estado Solicitud" style="rounded=1;whiteSpace=wrap;html=1;labelBackgroundColor=none;fillColor=#F2CC8F;strokeColor=#E07A5F;fontColor=#393C56;" parent="1" vertex="1">
          <mxGeometry x="580" y="610" width="120" height="60" as="geometry" />
        </mxCell>
        <mxCell id="AEeKhbwLAg1B9olZ4guV-16" style="edgeStyle=orthogonalEdgeStyle;rounded=0;orthogonalLoop=1;jettySize=auto;html=1;exitX=0;exitY=1;exitDx=0;exitDy=0;entryX=1;entryY=0.5;entryDx=0;entryDy=0;endArrow=none;endFill=0;labelBackgroundColor=none;strokeColor=#E07A5F;fontColor=default;" parent="1" source="AEeKhbwLAg1B9olZ4guV-7" target="AEeKhbwLAg1B9olZ4guV-15" edge="1">
          <mxGeometry relative="1" as="geometry" />
        </mxCell>
        <mxCell id="_9QnqJEcpBBoH2XmrA8E-15" style="edgeStyle=orthogonalEdgeStyle;rounded=0;orthogonalLoop=1;jettySize=auto;html=1;exitX=0.5;exitY=1;exitDx=0;exitDy=0;entryX=0.5;entryY=1;entryDx=0;entryDy=0;endArrow=none;endFill=0;labelBackgroundColor=none;strokeColor=#E07A5F;fontColor=default;" edge="1" parent="1" target="_9QnqJEcpBBoH2XmrA8E-2">
          <mxGeometry relative="1" as="geometry">
            <mxPoint x="475" y="500" as="sourcePoint" />
            <mxPoint x="1053" y="501" as="targetPoint" />
            <Array as="points">
              <mxPoint x="475" y="750" />
              <mxPoint x="1068" y="750" />
            </Array>
          </mxGeometry>
        </mxCell>
        <mxCell id="AEeKhbwLAg1B9olZ4guV-7" value="Solicitud Insumo" style="rounded=1;whiteSpace=wrap;html=1;labelBackgroundColor=none;fillColor=#F2CC8F;strokeColor=#E07A5F;fontColor=#393C56;" parent="1" vertex="1">
          <mxGeometry x="430" y="440" width="120" height="60" as="geometry" />
        </mxCell>
        <mxCell id="_9QnqJEcpBBoH2XmrA8E-14" style="edgeStyle=orthogonalEdgeStyle;rounded=0;orthogonalLoop=1;jettySize=auto;html=1;exitX=1;exitY=0.5;exitDx=0;exitDy=0;endArrow=none;endFill=0;labelBackgroundColor=none;strokeColor=#E07A5F;fontColor=default;" edge="1" parent="1" source="AEeKhbwLAg1B9olZ4guV-8" target="_9QnqJEcpBBoH2XmrA8E-2">
          <mxGeometry relative="1" as="geometry" />
        </mxCell>
        <mxCell id="AEeKhbwLAg1B9olZ4guV-8" value="Solicitud Horario" style="rounded=1;whiteSpace=wrap;html=1;labelBackgroundColor=none;fillColor=#F2CC8F;strokeColor=#E07A5F;fontColor=#393C56;" parent="1" vertex="1">
          <mxGeometry x="700" y="440" width="120" height="60" as="geometry" />
        </mxCell>
        <mxCell id="AEeKhbwLAg1B9olZ4guV-19" style="edgeStyle=orthogonalEdgeStyle;rounded=0;orthogonalLoop=1;jettySize=auto;html=1;exitX=0.5;exitY=0;exitDx=0;exitDy=0;entryX=0;entryY=0.5;entryDx=0;entryDy=0;strokeColor=#E07A5F;fontColor=default;fillColor=#F2CC8F;endArrow=none;endFill=0;labelBackgroundColor=none;" parent="1" source="AEeKhbwLAg1B9olZ4guV-13" target="Ph2dyEkU18BS4YI-uCKn-2" edge="1">
          <mxGeometry relative="1" as="geometry" />
        </mxCell>
        <mxCell id="AEeKhbwLAg1B9olZ4guV-33" style="edgeStyle=orthogonalEdgeStyle;rounded=0;orthogonalLoop=1;jettySize=auto;html=1;exitX=0.5;exitY=1;exitDx=0;exitDy=0;entryX=0;entryY=0.5;entryDx=0;entryDy=0;strokeColor=#E07A5F;fontColor=default;fillColor=#F2CC8F;endArrow=none;endFill=0;labelBackgroundColor=none;" parent="1" source="AEeKhbwLAg1B9olZ4guV-13" target="AEeKhbwLAg1B9olZ4guV-7" edge="1">
          <mxGeometry relative="1" as="geometry" />
        </mxCell>
        <mxCell id="AEeKhbwLAg1B9olZ4guV-13" value="Reserva" style="rounded=1;whiteSpace=wrap;html=1;labelBackgroundColor=none;fillColor=#F2CC8F;strokeColor=#E07A5F;fontColor=#393C56;" parent="1" vertex="1">
          <mxGeometry x="140" y="360" width="120" height="60" as="geometry" />
        </mxCell>
        <mxCell id="AEeKhbwLAg1B9olZ4guV-18" style="edgeStyle=orthogonalEdgeStyle;rounded=0;orthogonalLoop=1;jettySize=auto;html=1;exitX=0.5;exitY=1;exitDx=0;exitDy=0;entryX=0.5;entryY=0;entryDx=0;entryDy=0;endArrow=none;endFill=0;labelBackgroundColor=none;strokeColor=#E07A5F;fontColor=default;" parent="1" source="AEeKhbwLAg1B9olZ4guV-15" target="AEeKhbwLAg1B9olZ4guV-17" edge="1">
          <mxGeometry relative="1" as="geometry" />
        </mxCell>
        <mxCell id="AEeKhbwLAg1B9olZ4guV-15" value="Insumo" style="rounded=1;whiteSpace=wrap;html=1;labelBackgroundColor=none;fillColor=#F2CC8F;strokeColor=#E07A5F;fontColor=#393C56;" parent="1" vertex="1">
          <mxGeometry x="10" y="500" width="120" height="60" as="geometry" />
        </mxCell>
        <mxCell id="AEeKhbwLAg1B9olZ4guV-17" value="Tipo Insumo" style="rounded=1;whiteSpace=wrap;html=1;labelBackgroundColor=none;fillColor=#F2CC8F;strokeColor=#E07A5F;fontColor=#393C56;" parent="1" vertex="1">
          <mxGeometry x="11" y="660" width="120" height="60" as="geometry" />
        </mxCell>
        <mxCell id="AEeKhbwLAg1B9olZ4guV-20" value="&amp;lt;-Puede Hacer" style="text;html=1;align=center;verticalAlign=middle;resizable=0;points=[];autosize=1;strokeColor=none;fillColor=none;fontColor=#393C56;rotation=-90;labelBackgroundColor=none;" parent="1" vertex="1">
          <mxGeometry x="541" y="399" width="100" height="30" as="geometry" />
        </mxCell>
        <mxCell id="AEeKhbwLAg1B9olZ4guV-21" value="&amp;lt;-Puede Hacer" style="text;html=1;align=center;verticalAlign=middle;resizable=0;points=[];autosize=1;strokeColor=none;fillColor=none;fontColor=#393C56;rotation=-90;labelBackgroundColor=none;" parent="1" vertex="1">
          <mxGeometry x="700" y="344" width="100" height="30" as="geometry" />
        </mxCell>
        <mxCell id="AEeKhbwLAg1B9olZ4guV-22" value="0..*" style="text;html=1;align=center;verticalAlign=middle;resizable=0;points=[];autosize=1;strokeColor=none;fillColor=none;fontColor=#393C56;labelBackgroundColor=none;" parent="1" vertex="1">
          <mxGeometry x="542" y="446" width="40" height="30" as="geometry" />
        </mxCell>
        <mxCell id="AEeKhbwLAg1B9olZ4guV-23" value="0..*" style="text;html=1;align=center;verticalAlign=middle;resizable=0;points=[];autosize=1;strokeColor=none;fillColor=none;fontColor=#393C56;labelBackgroundColor=none;" parent="1" vertex="1">
          <mxGeometry x="730" y="410" width="40" height="30" as="geometry" />
        </mxCell>
        <mxCell id="AEeKhbwLAg1B9olZ4guV-24" value="Pertenece -&amp;gt;" style="text;html=1;align=center;verticalAlign=middle;resizable=0;points=[];autosize=1;strokeColor=none;fillColor=none;fontColor=#393C56;rotation=-90;labelBackgroundColor=none;" parent="1" vertex="1">
          <mxGeometry x="566" y="392" width="90" height="30" as="geometry" />
        </mxCell>
        <mxCell id="AEeKhbwLAg1B9olZ4guV-25" value="1..1" style="text;html=1;align=center;verticalAlign=middle;resizable=0;points=[];autosize=1;strokeColor=none;fillColor=none;fontColor=#393C56;labelBackgroundColor=none;" parent="1" vertex="1">
          <mxGeometry x="650" y="282" width="40" height="30" as="geometry" />
        </mxCell>
        <mxCell id="AEeKhbwLAg1B9olZ4guV-26" value="1..1" style="text;html=1;align=center;verticalAlign=middle;resizable=0;points=[];autosize=1;strokeColor=none;fillColor=none;fontColor=#393C56;labelBackgroundColor=none;" parent="1" vertex="1">
          <mxGeometry x="594" y="334" width="40" height="30" as="geometry" />
        </mxCell>
        <mxCell id="AEeKhbwLAg1B9olZ4guV-27" value="Pertenece -&amp;gt;" style="text;html=1;align=center;verticalAlign=middle;resizable=0;points=[];autosize=1;strokeColor=none;fillColor=none;fontColor=#393C56;rotation=-90;labelBackgroundColor=none;" parent="1" vertex="1">
          <mxGeometry x="723" y="344" width="90" height="30" as="geometry" />
        </mxCell>
        <mxCell id="AEeKhbwLAg1B9olZ4guV-28" value="&amp;lt;-Tiene" style="text;html=1;align=center;verticalAlign=middle;resizable=0;points=[];autosize=1;strokeColor=none;fillColor=none;fontColor=#393C56;labelBackgroundColor=none;" parent="1" vertex="1">
          <mxGeometry x="360" y="282" width="60" height="30" as="geometry" />
        </mxCell>
        <mxCell id="AEeKhbwLAg1B9olZ4guV-29" value="0..*" style="text;html=1;align=center;verticalAlign=middle;resizable=0;points=[];autosize=1;strokeColor=none;fillColor=none;fontColor=#393C56;labelBackgroundColor=none;" parent="1" vertex="1">
          <mxGeometry x="169" y="336" width="40" height="30" as="geometry" />
        </mxCell>
        <mxCell id="AEeKhbwLAg1B9olZ4guV-31" value="Pertenece -&amp;gt;" style="text;html=1;align=center;verticalAlign=middle;resizable=0;points=[];autosize=1;strokeColor=none;fillColor=none;fontColor=#393C56;labelBackgroundColor=none;" parent="1" vertex="1">
          <mxGeometry x="340" y="305" width="90" height="30" as="geometry" />
        </mxCell>
        <mxCell id="AEeKhbwLAg1B9olZ4guV-32" value="1..1" style="text;html=1;align=center;verticalAlign=middle;resizable=0;points=[];autosize=1;strokeColor=none;fillColor=none;fontColor=#393C56;labelBackgroundColor=none;" parent="1" vertex="1">
          <mxGeometry x="507" y="304" width="40" height="30" as="geometry" />
        </mxCell>
        <mxCell id="AEeKhbwLAg1B9olZ4guV-34" value="&amp;lt;-Esta asociada" style="text;html=1;align=center;verticalAlign=middle;resizable=0;points=[];autosize=1;strokeColor=none;fillColor=none;fontColor=#393C56;labelBackgroundColor=none;" parent="1" vertex="1">
          <mxGeometry x="266" y="446" width="110" height="30" as="geometry" />
        </mxCell>
        <mxCell id="AEeKhbwLAg1B9olZ4guV-35" value="1..1" style="text;html=1;align=center;verticalAlign=middle;resizable=0;points=[];autosize=1;strokeColor=none;fillColor=none;fontColor=#393C56;labelBackgroundColor=none;" parent="1" vertex="1">
          <mxGeometry x="191" y="415" width="40" height="30" as="geometry" />
        </mxCell>
        <mxCell id="AEeKhbwLAg1B9olZ4guV-36" value="Tiene -&amp;gt;" style="text;html=1;align=center;verticalAlign=middle;resizable=0;points=[];autosize=1;strokeColor=none;fillColor=none;fontColor=#393C56;labelBackgroundColor=none;" parent="1" vertex="1">
          <mxGeometry x="288" y="465" width="70" height="30" as="geometry" />
        </mxCell>
        <mxCell id="AEeKhbwLAg1B9olZ4guV-38" value="0..*" style="text;html=1;align=center;verticalAlign=middle;resizable=0;points=[];autosize=1;strokeColor=none;fillColor=none;fontColor=#393C56;labelBackgroundColor=none;" parent="1" vertex="1">
          <mxGeometry x="397" y="464" width="40" height="30" as="geometry" />
        </mxCell>
        <mxCell id="AEeKhbwLAg1B9olZ4guV-39" value="Tiene -&amp;gt;" style="text;html=1;align=center;verticalAlign=middle;resizable=0;points=[];autosize=1;strokeColor=none;fillColor=none;fontColor=#393C56;rotation=-90;labelBackgroundColor=none;" parent="1" vertex="1">
          <mxGeometry x="732" y="573" width="70" height="30" as="geometry" />
        </mxCell>
        <mxCell id="AEeKhbwLAg1B9olZ4guV-40" value="0..*" style="text;html=1;align=center;verticalAlign=middle;resizable=0;points=[];autosize=1;strokeColor=none;fillColor=none;fontColor=#393C56;labelBackgroundColor=none;" parent="1" vertex="1">
          <mxGeometry x="748" y="494" width="40" height="30" as="geometry" />
        </mxCell>
        <mxCell id="AEeKhbwLAg1B9olZ4guV-41" value="Tiene -&amp;gt;" style="text;html=1;align=center;verticalAlign=middle;resizable=0;points=[];autosize=1;strokeColor=none;fillColor=none;fontColor=#393C56;rotation=-90;labelBackgroundColor=none;" parent="1" vertex="1">
          <mxGeometry x="494" y="563" width="70" height="30" as="geometry" />
        </mxCell>
        <mxCell id="AEeKhbwLAg1B9olZ4guV-42" value="0..*" style="text;html=1;align=center;verticalAlign=middle;resizable=0;points=[];autosize=1;strokeColor=none;fillColor=none;fontColor=#393C56;labelBackgroundColor=none;" parent="1" vertex="1">
          <mxGeometry x="513" y="498" width="40" height="30" as="geometry" />
        </mxCell>
        <mxCell id="AEeKhbwLAg1B9olZ4guV-43" value="&amp;lt;-Posee" style="text;html=1;align=center;verticalAlign=middle;resizable=0;points=[];autosize=1;strokeColor=none;fillColor=none;fontColor=#393C56;rotation=-90;labelBackgroundColor=none;" parent="1" vertex="1">
          <mxGeometry x="715" y="555" width="70" height="30" as="geometry" />
        </mxCell>
        <mxCell id="AEeKhbwLAg1B9olZ4guV-45" value="&amp;lt;-Posee" style="text;html=1;align=center;verticalAlign=middle;resizable=0;points=[];autosize=1;strokeColor=none;fillColor=none;fontColor=#393C56;rotation=-90;labelBackgroundColor=none;" parent="1" vertex="1">
          <mxGeometry x="473" y="569" width="70" height="30" as="geometry" />
        </mxCell>
        <mxCell id="AEeKhbwLAg1B9olZ4guV-46" value="1..1" style="text;html=1;align=center;verticalAlign=middle;resizable=0;points=[];autosize=1;strokeColor=none;fillColor=none;fontColor=#393C56;labelBackgroundColor=none;" parent="1" vertex="1">
          <mxGeometry x="696" y="615" width="40" height="30" as="geometry" />
        </mxCell>
        <mxCell id="AEeKhbwLAg1B9olZ4guV-47" value="1..1" style="text;html=1;align=center;verticalAlign=middle;resizable=0;points=[];autosize=1;strokeColor=none;fillColor=none;fontColor=#393C56;labelBackgroundColor=none;" parent="1" vertex="1">
          <mxGeometry x="542" y="640" width="40" height="30" as="geometry" />
        </mxCell>
        <mxCell id="AEeKhbwLAg1B9olZ4guV-49" value="Tiene-&amp;gt;" style="text;html=1;align=center;verticalAlign=middle;resizable=0;points=[];autosize=1;strokeColor=none;fillColor=none;fontColor=#393C56;rotation=-90;labelBackgroundColor=none;" parent="1" vertex="1">
          <mxGeometry x="54" y="600" width="60" height="30" as="geometry" />
        </mxCell>
        <mxCell id="AEeKhbwLAg1B9olZ4guV-50" value="&amp;lt;-Posee" style="text;html=1;align=center;verticalAlign=middle;resizable=0;points=[];autosize=1;strokeColor=none;fillColor=none;fontColor=#393C56;rotation=-90;labelBackgroundColor=none;" parent="1" vertex="1">
          <mxGeometry x="27" y="589" width="70" height="30" as="geometry" />
        </mxCell>
        <mxCell id="AEeKhbwLAg1B9olZ4guV-51" value="1..1" style="text;html=1;align=center;verticalAlign=middle;resizable=0;points=[];autosize=1;strokeColor=none;fillColor=none;fontColor=#393C56;labelBackgroundColor=none;" parent="1" vertex="1">
          <mxGeometry x="33" y="634" width="40" height="30" as="geometry" />
        </mxCell>
        <mxCell id="AEeKhbwLAg1B9olZ4guV-52" value="0..*" style="text;html=1;align=center;verticalAlign=middle;resizable=0;points=[];autosize=1;strokeColor=none;fillColor=none;fontColor=#393C56;labelBackgroundColor=none;" parent="1" vertex="1">
          <mxGeometry x="70" y="558" width="40" height="30" as="geometry" />
        </mxCell>
        <mxCell id="AEeKhbwLAg1B9olZ4guV-53" value="&amp;lt;-Tiene" style="text;html=1;align=center;verticalAlign=middle;resizable=0;points=[];autosize=1;strokeColor=none;fillColor=none;fontColor=#393C56;labelBackgroundColor=none;" parent="1" vertex="1">
          <mxGeometry x="240" y="509" width="60" height="30" as="geometry" />
        </mxCell>
        <mxCell id="AEeKhbwLAg1B9olZ4guV-55" value="Pertenece-&amp;gt;" style="text;html=1;align=center;verticalAlign=middle;resizable=0;points=[];autosize=1;strokeColor=none;fillColor=none;fontColor=#393C56;labelBackgroundColor=none;" parent="1" vertex="1">
          <mxGeometry x="231" y="523" width="90" height="30" as="geometry" />
        </mxCell>
        <mxCell id="AEeKhbwLAg1B9olZ4guV-56" value="1..*" style="text;html=1;align=center;verticalAlign=middle;resizable=0;points=[];autosize=1;strokeColor=none;fillColor=none;fontColor=#393C56;labelBackgroundColor=none;" parent="1" vertex="1">
          <mxGeometry x="120" y="509" width="40" height="30" as="geometry" />
        </mxCell>
        <mxCell id="AEeKhbwLAg1B9olZ4guV-58" value="1..1" style="text;html=1;align=center;verticalAlign=middle;resizable=0;points=[];autosize=1;strokeColor=none;fillColor=none;fontColor=#393C56;labelBackgroundColor=none;" parent="1" vertex="1">
          <mxGeometry x="421" y="493" width="40" height="30" as="geometry" />
        </mxCell>
        <mxCell id="_9QnqJEcpBBoH2XmrA8E-1" style="edgeStyle=orthogonalEdgeStyle;rounded=0;orthogonalLoop=1;jettySize=auto;html=1;exitX=0.5;exitY=0;exitDx=0;exitDy=0;entryX=0.5;entryY=1;entryDx=0;entryDy=0;endArrow=none;endFill=0;labelBackgroundColor=none;strokeColor=#E07A5F;fontColor=default;" edge="1" parent="1" source="_9QnqJEcpBBoH2XmrA8E-2" target="_9QnqJEcpBBoH2XmrA8E-3">
          <mxGeometry relative="1" as="geometry">
            <mxPoint x="1068" y="436" as="sourcePoint" />
          </mxGeometry>
        </mxCell>
        <mxCell id="_9QnqJEcpBBoH2XmrA8E-2" value="Solicitud Pendiente" style="rounded=1;whiteSpace=wrap;html=1;labelBackgroundColor=none;fillColor=#F2CC8F;strokeColor=#E07A5F;fontColor=#393C56;" vertex="1" parent="1">
          <mxGeometry x="1008" y="440" width="120" height="60" as="geometry" />
        </mxCell>
        <mxCell id="_9QnqJEcpBBoH2XmrA8E-3" value="Bandeja Entrada" style="rounded=1;whiteSpace=wrap;html=1;labelBackgroundColor=none;fillColor=#F2CC8F;strokeColor=#E07A5F;fontColor=#393C56;" vertex="1" parent="1">
          <mxGeometry x="1008" y="245" width="120" height="60" as="geometry" />
        </mxCell>
        <mxCell id="_9QnqJEcpBBoH2XmrA8E-4" style="edgeStyle=orthogonalEdgeStyle;rounded=0;orthogonalLoop=1;jettySize=auto;html=1;exitX=0.5;exitY=1;exitDx=0;exitDy=0;endArrow=none;endFill=0;labelBackgroundColor=none;strokeColor=#E07A5F;fontColor=default;entryX=0.5;entryY=0;entryDx=0;entryDy=0;" edge="1" parent="1" source="_9QnqJEcpBBoH2XmrA8E-5" target="_9QnqJEcpBBoH2XmrA8E-3">
          <mxGeometry relative="1" as="geometry">
            <mxPoint x="1068" y="220" as="targetPoint" />
          </mxGeometry>
        </mxCell>
        <mxCell id="_9QnqJEcpBBoH2XmrA8E-5" value="Buzon" style="rounded=1;whiteSpace=wrap;html=1;labelBackgroundColor=none;fillColor=#F2CC8F;strokeColor=#E07A5F;fontColor=#393C56;" vertex="1" parent="1">
          <mxGeometry x="1008" y="110" width="120" height="60" as="geometry" />
        </mxCell>
        <mxCell id="_9QnqJEcpBBoH2XmrA8E-13" style="edgeStyle=orthogonalEdgeStyle;rounded=0;orthogonalLoop=1;jettySize=auto;html=1;exitX=1;exitY=0.5;exitDx=0;exitDy=0;entryX=0;entryY=0.5;entryDx=0;entryDy=0;endArrow=none;endFill=0;labelBackgroundColor=none;strokeColor=#E07A5F;fontColor=default;" edge="1" parent="1" source="_9QnqJEcpBBoH2XmrA8E-7" target="_9QnqJEcpBBoH2XmrA8E-5">
          <mxGeometry relative="1" as="geometry" />
        </mxCell>
        <mxCell id="_9QnqJEcpBBoH2XmrA8E-7" value="Coordinador" style="rounded=1;whiteSpace=wrap;html=1;labelBackgroundColor=none;fillColor=#F2CC8F;strokeColor=#E07A5F;fontColor=#393C56;" vertex="1" parent="1">
          <mxGeometry x="760" y="110" width="120" height="60" as="geometry" />
        </mxCell>
        <mxCell id="_9QnqJEcpBBoH2XmrA8E-16" value="Puede ser -&amp;gt;" style="text;html=1;align=center;verticalAlign=middle;resizable=0;points=[];autosize=1;strokeColor=none;fillColor=none;fontColor=#393C56;" vertex="1" parent="1">
          <mxGeometry x="870" y="463" width="90" height="30" as="geometry" />
        </mxCell>
        <mxCell id="_9QnqJEcpBBoH2XmrA8E-17" value="1..1" style="text;html=1;align=center;verticalAlign=middle;resizable=0;points=[];autosize=1;strokeColor=none;fillColor=none;fontColor=#393C56;" vertex="1" parent="1">
          <mxGeometry x="977" y="464" width="40" height="30" as="geometry" />
        </mxCell>
        <mxCell id="_9QnqJEcpBBoH2XmrA8E-18" value="&amp;lt;-Es" style="text;html=1;align=center;verticalAlign=middle;resizable=0;points=[];autosize=1;strokeColor=none;fillColor=none;fontColor=#393C56;" vertex="1" parent="1">
          <mxGeometry x="890" y="446" width="50" height="30" as="geometry" />
        </mxCell>
        <mxCell id="_9QnqJEcpBBoH2XmrA8E-19" value="1..1" style="text;html=1;align=center;verticalAlign=middle;resizable=0;points=[];autosize=1;strokeColor=none;fillColor=none;fontColor=#393C56;" vertex="1" parent="1">
          <mxGeometry x="813" y="445" width="40" height="30" as="geometry" />
        </mxCell>
        <mxCell id="_9QnqJEcpBBoH2XmrA8E-20" value="Puede ser -&amp;gt;" style="text;html=1;align=center;verticalAlign=middle;resizable=0;points=[];autosize=1;strokeColor=none;fillColor=none;fontColor=#393C56;" vertex="1" parent="1">
          <mxGeometry x="737" y="748" width="90" height="30" as="geometry" />
        </mxCell>
        <mxCell id="_9QnqJEcpBBoH2XmrA8E-21" value="&amp;lt;-Es" style="text;html=1;align=center;verticalAlign=middle;resizable=0;points=[];autosize=1;strokeColor=none;fillColor=none;fontColor=#393C56;" vertex="1" parent="1">
          <mxGeometry x="748" y="724" width="50" height="30" as="geometry" />
        </mxCell>
        <mxCell id="_9QnqJEcpBBoH2XmrA8E-22" value="1..1" style="text;html=1;align=center;verticalAlign=middle;resizable=0;points=[];autosize=1;strokeColor=none;fillColor=none;fontColor=#393C56;" vertex="1" parent="1">
          <mxGeometry x="1060" y="495" width="40" height="30" as="geometry" />
        </mxCell>
        <mxCell id="_9QnqJEcpBBoH2XmrA8E-23" value="1..1" style="text;html=1;align=center;verticalAlign=middle;resizable=0;points=[];autosize=1;strokeColor=none;fillColor=none;fontColor=#393C56;" vertex="1" parent="1">
          <mxGeometry x="467" y="493" width="40" height="30" as="geometry" />
        </mxCell>
        <mxCell id="_9QnqJEcpBBoH2XmrA8E-24" value="Es enviada-&amp;gt;" style="text;html=1;align=center;verticalAlign=middle;resizable=0;points=[];autosize=1;strokeColor=none;fillColor=none;fontColor=#393C56;rotation=-90;" vertex="1" parent="1">
          <mxGeometry x="1035" y="360" width="90" height="30" as="geometry" />
        </mxCell>
        <mxCell id="_9QnqJEcpBBoH2XmrA8E-25" value="1..1" style="text;html=1;align=center;verticalAlign=middle;resizable=0;points=[];autosize=1;strokeColor=none;fillColor=none;fontColor=#393C56;" vertex="1" parent="1">
          <mxGeometry x="1060" y="304" width="40" height="30" as="geometry" />
        </mxCell>
        <mxCell id="_9QnqJEcpBBoH2XmrA8E-26" value="Puede tener -&amp;gt;" style="text;html=1;align=center;verticalAlign=middle;resizable=0;points=[];autosize=1;strokeColor=none;fillColor=none;fontColor=#393C56;rotation=90;" vertex="1" parent="1">
          <mxGeometry x="1008" y="360" width="100" height="30" as="geometry" />
        </mxCell>
        <mxCell id="_9QnqJEcpBBoH2XmrA8E-27" value="0..*" style="text;html=1;align=center;verticalAlign=middle;resizable=0;points=[];autosize=1;strokeColor=none;fillColor=none;fontColor=#393C56;" vertex="1" parent="1">
          <mxGeometry x="1035" y="415" width="40" height="30" as="geometry" />
        </mxCell>
        <mxCell id="_9QnqJEcpBBoH2XmrA8E-28" value="Tiene-&amp;gt;" style="text;html=1;align=center;verticalAlign=middle;resizable=0;points=[];autosize=1;strokeColor=none;fillColor=none;fontColor=#393C56;" vertex="1" parent="1">
          <mxGeometry x="910" y="120" width="60" height="30" as="geometry" />
        </mxCell>
        <mxCell id="_9QnqJEcpBBoH2XmrA8E-29" value="1..1" style="text;html=1;align=center;verticalAlign=middle;resizable=0;points=[];autosize=1;strokeColor=none;fillColor=none;fontColor=#393C56;" vertex="1" parent="1">
          <mxGeometry x="977" y="120" width="40" height="30" as="geometry" />
        </mxCell>
        <mxCell id="_9QnqJEcpBBoH2XmrA8E-30" value="&amp;lt;-Pertenece" style="text;html=1;align=center;verticalAlign=middle;resizable=0;points=[];autosize=1;strokeColor=none;fillColor=none;fontColor=#393C56;" vertex="1" parent="1">
          <mxGeometry x="907" y="136" width="90" height="30" as="geometry" />
        </mxCell>
        <mxCell id="_9QnqJEcpBBoH2XmrA8E-31" value="1..1" style="text;html=1;align=center;verticalAlign=middle;resizable=0;points=[];autosize=1;strokeColor=none;fillColor=none;fontColor=#393C56;" vertex="1" parent="1">
          <mxGeometry x="870" y="136" width="40" height="30" as="geometry" />
        </mxCell>
        <mxCell id="_9QnqJEcpBBoH2XmrA8E-32" value="Tiene-&amp;gt;" style="text;html=1;align=center;verticalAlign=middle;resizable=0;points=[];autosize=1;strokeColor=none;fillColor=none;fontColor=#393C56;rotation=90;" vertex="1" parent="1">
          <mxGeometry x="1028" y="180" width="60" height="30" as="geometry" />
        </mxCell>
        <mxCell id="_9QnqJEcpBBoH2XmrA8E-33" value="1..*" style="text;html=1;align=center;verticalAlign=middle;resizable=0;points=[];autosize=1;strokeColor=none;fillColor=none;fontColor=#393C56;" vertex="1" parent="1">
          <mxGeometry x="1038" y="222" width="40" height="30" as="geometry" />
        </mxCell>
        <mxCell id="_9QnqJEcpBBoH2XmrA8E-34" value="1..1" style="text;html=1;align=center;verticalAlign=middle;resizable=0;points=[];autosize=1;strokeColor=none;fillColor=none;fontColor=#393C56;" vertex="1" parent="1">
          <mxGeometry x="1060" y="166" width="40" height="30" as="geometry" />
        </mxCell>
        <mxCell id="_9QnqJEcpBBoH2XmrA8E-35" value="Es de -&amp;gt;" style="text;html=1;align=center;verticalAlign=middle;resizable=0;points=[];autosize=1;strokeColor=none;fillColor=none;fontColor=#393C56;rotation=-90;" vertex="1" parent="1">
          <mxGeometry x="1045" y="196" width="70" height="30" as="geometry" />
        </mxCell>
      </root>
    </mxGraphModel>
  </diagram>
</mxfile>
